# Made in Blockbench 4.9.0
mtllib spaceship.mtl

o cylinder
v -0.0625 0 0
v 0 -0.0625 0
v 0 0.0625 0
v 0.0625 0 0
v 0 0 -0.3125
v 0 0 0.125
vt 0.6311875 0.8125
vt 0.3125 0.8125
vt 0.32475624999999997 0.72496875
vt 0.0625 0.037462499999999954
vt 0.3811875 0.037462499999999954
vt 0.07475624999999997 0.125
vt 0.8186875 0.8125
vt 0.5 0.8125
vt 0.80643125 0.7249625
vt 0.5 0.6624625
vt 0.8186875 0.6624625
vt 0.80643125 0.75
vt 0.45225000000000004 1
vt 0.3125 1
vt 0.34045000000000003 0.91614375
vt 0.125 0.35364375000000003
vt 0.26475000000000004 0.35364375000000003
vt 0.15295 0.4375
vt 0.26475625 0.85364375
vt 0.23680625 0.9375
vt 0.125 0.85364375
vt 0.5625 0.375
vt 0.70225625 0.375
vt 0.59045 0.29115
vn 0.7001400420140049 -0.7001400420140049 -0.140028008402801
vn 0.7001400420140049 0.7001400420140049 -0.140028008402801
vn -0.7001400420140049 -0.7001400420140049 -0.140028008402801
vn -0.7001400420140049 0.7001400420140049 -0.140028008402801
vn -0.6666666666666666 -0.6666666666666666 0.3333333333333333
vn -0.6666666666666666 0.6666666666666666 0.3333333333333333
vn 0.6666666666666666 0.6666666666666666 0.3333333333333333
vn 0.6666666666666666 -0.6666666666666666 0.3333333333333333
usemtl m_52f1fe3f-1215-03ae-0b06-6ac5ca25192c
f 5/1/1 4/2/1 2/3/1
f 4/4/2 5/5/2 3/6/2
f 1/7/3 5/8/3 2/9/3
f 5/10/4 1/11/4 3/12/4
f 6/13/5 1/14/5 2/15/5
f 1/16/6 6/17/6 3/18/6
f 4/19/7 3/20/7 6/21/7
f 4/22/8 6/23/8 2/24/8
o cylinder_selection
v 0.06250000000000006 0 0
v 0.09374999999999989 -0.031249999999999972 0
v 0.09374999999999989 0.03125 0
v 0.125 0 0
v 0.09374999999999989 0 -0.1875
v 0.09374999999999989 0 0.0625
vt 0.8150875 0.5
vt 0.625 0.5
vt 0.6301375 0.45610624999999994
vt 0.625 0.8311062499999999
vt 0.8150875 0.8311062499999999
vt 0.6301375 0.875
vt 0.9400875 0.875
vt 0.75 0.875
vt 0.93495 0.8311062499999999
vt 0.75 0.45610625000000005
vt 0.9400875 0.45610625000000005
vt 0.93495 0.5
vt 0.06987499999999999 1
vt 0 1
vt 0.013975000000000015 0.958075
vt 0 0.458075
vt 0.06987499999999999 0.458075
vt 0.013975000000000015 0.5
vt 0.56988125 0.958075
vt 0.55590625 1
vt 0.5 0.958075
vt 0.56988125 0.375
vt 0.5 0.375
vt 0.55590625 0.333075
vn 0.7022468831767819 -0.702246883176785 -0.11704114719613072
vn 0.7022468831767822 0.7022468831767846 -0.11704114719613078
vn -0.702246883176785 -0.7022468831767819 -0.11704114719613021
vn -0.7022468831767853 0.7022468831767816 -0.11704114719613026
vn -0.6666666666666684 -0.6666666666666655 0.3333333333333324
vn -0.6666666666666686 0.6666666666666651 0.33333333333333254
vn 0.6666666666666654 0.6666666666666677 0.33333333333333387
vn 0.6666666666666651 -0.6666666666666681 0.3333333333333337
usemtl m_2241852d-f797-986c-b3f4-84d212500baf
f 11/25/9 10/26/9 8/27/9
f 10/28/10 11/29/10 9/30/10
f 7/31/11 11/32/11 8/33/11
f 11/34/12 7/35/12 9/36/12
f 12/37/13 7/38/13 8/39/13
f 7/40/14 12/41/14 9/42/14
f 10/43/15 9/44/15 12/45/15
f 10/46/16 12/47/16 8/48/16
o cylinder_selection
v -0.125 0 0
v -0.09374999999999989 -0.031249999999999972 0
v -0.09374999999999989 0.03125 0
v -0.06249999999999978 0 0
v -0.09374999999999989 0 -0.1875
v -0.09374999999999989 0 0.0625
vt 0.37758749999999996 0.5
vt 0.1875 0.5
vt 0.1926375 0.45610624999999994
vt 0.1875 0.8311062499999999
vt 0.37758749999999996 0.8311062499999999
vt 0.1926375 0.875
vt 0.5025875 0.875
vt 0.3125 0.875
vt 0.49744999999999995 0.8311062499999999
vt 0.3125 0.45610625000000005
vt 0.5025875 0.45610625000000005
vt 0.49744999999999995 0.5
vt 0.319875 1
vt 0.25 1
vt 0.26397499999999996 0.958075
vt 0.0625 0.458075
vt 0.13237500000000002 0.458075
vt 0.07647499999999999 0.5
vt 0.569875 0.95806875
vt 0.5559 1
vt 0.5 0.95806875
vt 0.319875 0.6875
vt 0.25 0.6875
vt 0.30589999999999995 0.645575
vn 0.7022468831767819 -0.702246883176785 -0.11704114719613072
vn 0.7022468831767822 0.7022468831767846 -0.11704114719613078
vn -0.7022468831767819 -0.702246883176785 -0.11704114719613072
vn -0.7022468831767822 0.7022468831767846 -0.11704114719613078
vn -0.6666666666666651 -0.6666666666666681 0.3333333333333337
vn -0.6666666666666654 0.6666666666666677 0.33333333333333387
vn 0.6666666666666654 0.6666666666666677 0.33333333333333387
vn 0.6666666666666651 -0.6666666666666681 0.3333333333333337
usemtl m_2241852d-f797-986c-b3f4-84d212500baf
f 17/49/17 16/50/17 14/51/17
f 16/52/18 17/53/18 15/54/18
f 13/55/19 17/56/19 14/57/19
f 17/58/20 13/59/20 15/60/20
f 18/61/21 13/62/21 14/63/21
f 13/64/22 18/65/22 15/66/22
f 16/67/23 15/68/23 18/69/23
f 16/70/24 18/71/24 14/72/24