# Blockbench 4.9.1 glTF exporter.
# Mesh: cuboid (44)
# Geometry: unnamed (10)
v 0.125 0.09375 0.03437500074505806
v 0.125 0.03125 0.03437500074505806
v 0.125 0.09375 -0.03437500074505806
v 0.125 0.03125 -0.03437500074505806
v -0.125 0.09375 0.03437500074505806
v -0.125 0.09375 -0.03437500074505806
v -0.125 0.03125 0.03437500074505806
v -0.125 0.03125 -0.03437500074505806
v 0.09375 0.125 0.06875000149011612
v 0.09375 0.125 -0.06875000149011612
v -0.09375 0.125 0.06875000149011612
v -0.09375 0.125 -0.06875000149011612
v 0.09375 0 0.06875000149011612
v -0.09375 0 0.06875000149011612
v 0.09375 0 -0.06875000149011612
v -0.09375 0 -0.06875000149011612
v 0.09375 0.125 0.06875000149011612
v -0.09375 0.125 0.06875000149011612
v 0.09375 0 0.06875000149011612
v -0.09375 0 0.06875000149011612
v 0.09375 0.125 -0.06875000149011612
v 0.09375 0 -0.06875000149011612
v -0.09375 0.125 -0.06875000149011612
v -0.09375 0 -0.06875000149011612
v -0.125 0.09375 0.03437500074505806
v -0.125 0.03125 0.03437500074505806
v -0.09375 0 0.06875000149011612
v -0.09375 0.125 0.06875000149011612
v -0.125 0.09375 -0.03437500074505806
v -0.125 0.09375 0.03437500074505806
v -0.09375 0.125 0.06875000149011612
v -0.09375 0.125 -0.06875000149011612
v -0.125 0.03125 -0.03437500074505806
v -0.125 0.09375 -0.03437500074505806
v -0.09375 0.125 -0.06875000149011612
v -0.09375 0 -0.06875000149011612
v -0.125 0.03125 0.03437500074505806
v -0.125 0.03125 -0.03437500074505806
v -0.09375 0 -0.06875000149011612
v -0.09375 0 0.06875000149011612
v 0.125 0.09375 0.03437500074505806
v 0.125 0.09375 -0.03437500074505806
v 0.09375 0.125 -0.06875000149011612
v 0.09375 0.125 0.06875000149011612
v 0.125 0.03125 0.03437500074505806
v 0.125 0.09375 0.03437500074505806
v 0.09375 0.125 0.06875000149011612
v 0.09375 0 0.06875000149011612
v 0.125 0.03125 -0.03437500074505806
v 0.125 0.03125 0.03437500074505806
v 0.09375 0 0.06875000149011612
v 0.09375 0 -0.06875000149011612
v 0.125 0.09375 -0.03437500074505806
v 0.125 0.03125 -0.03437500074505806
v 0.09375 0 -0.06875000149011612
v 0.09375 0.125 -0.06875000149011612
vn 1 0 0
vn 1 0 0
vn 1 0 0
vn 1 0 0
vn -1 0 0
vn -1 0 0
vn -1 0 0
vn -1 0 0
vn 0 1 0
vn 0 1 0
vn 0 1 0
vn 0 1 0
vn 0 -1 0
vn 0 -1 0
vn 0 -1 0
vn 0 -1 0
vn 0 0 1
vn 0 0 1
vn 0 0 1
vn 0 0 1
vn 0 0 -1
vn 0 0 -1
vn 0 0 -1
vn 0 0 -1
vn -0.7399400472640991 0 0.6726728081703186
vn -0.7399400472640991 0 0.6726728081703186
vn -0.7399400472640991 0 0.6726728081703186
vn -0.7399400472640991 0 0.6726728081703186
vn -0.7071067690849304 0.7071067690849304 0
vn -0.7071067690849304 0.7071067690849304 0
vn -0.7071067690849304 0.7071067690849304 0
vn -0.7071067690849304 0.7071067690849304 0
vn -0.7399400472640991 0 -0.6726728081703186
vn -0.7399400472640991 0 -0.6726728081703186
vn -0.7399400472640991 0 -0.6726728081703186
vn -0.7399400472640991 0 -0.6726728081703186
vn -0.7071067690849304 -0.7071067690849304 0
vn -0.7071067690849304 -0.7071067690849304 0
vn -0.7071067690849304 -0.7071067690849304 0
vn -0.7071067690849304 -0.7071067690849304 0
vn 0.7071067690849304 0.7071067690849304 0
vn 0.7071067690849304 0.7071067690849304 0
vn 0.7071067690849304 0.7071067690849304 0
vn 0.7071067690849304 0.7071067690849304 0
vn 0.7399400472640991 0 0.6726728081703186
vn 0.7399400472640991 0 0.6726728081703186
vn 0.7399400472640991 0 0.6726728081703186
vn 0.7399400472640991 0 0.6726728081703186
vn 0.7071067690849304 -0.7071067690849304 0
vn 0.7071067690849304 -0.7071067690849304 0
vn 0.7071067690849304 -0.7071067690849304 0
vn 0.7071067690849304 -0.7071067690849304 0
vn 0.7399400472640991 0 -0.6726728081703186
vn 0.7399400472640991 0 -0.6726728081703186
vn 0.7399400472640991 0 -0.6726728081703186
vn 0.7399400472640991 0 -0.6726728081703186
f 3//3 1//1 2//2
f 3//3 2//2 4//4
f 7//7 5//5 6//6
f 7//7 6//6 8//8
f 11//11 9//9 10//10
f 11//11 10//10 12//12
f 15//15 13//13 14//14
f 15//15 14//14 16//16
f 19//19 17//17 18//18
f 19//19 18//18 20//20
f 23//23 21//21 22//22
f 23//23 22//22 24//24
f 25//25 26//26 27//27
f 25//25 27//27 28//28
f 29//29 30//30 31//31
f 29//29 31//31 32//32
f 33//33 34//34 35//35
f 33//33 35//35 36//36
f 37//37 38//38 39//39
f 37//37 39//39 40//40
f 41//41 42//42 43//43
f 41//41 43//43 44//44
f 45//45 46//46 47//47
f 45//45 47//47 48//48
f 49//49 50//50 51//51
f 49//49 51//51 52//52
f 53//53 54//54 55//55
f 53//53 55//55 56//56
